<svg viewBox="0 0 200 200" xmlns="http://www.w3.org/2000/svg">
  <defs>
    <linearGradient id="logoGradient" x1="0%" y1="0%" x2="100%" y2="100%">
      <stop offset="0%" style="stop-color:#a855f7;stop-opacity:1" />
      <stop offset="100%" style="stop-color:#ec4899;stop-opacity:1" />
    </linearGradient>
    <linearGradient id="accentGradient" x1="0%" y1="0%" x2="100%" y2="100%">
      <stop offset="0%" style="stop-color:#fbbf24;stop-opacity:1" />
      <stop offset="100%" style="stop-color:#f59e0b;stop-opacity:1" />
    </linearGradient>
  </defs>
  
  <!-- Background circle with gradient -->
  <circle cx="100" cy="100" r="90" fill="url(#logoGradient)" opacity="0.15"/>
  
  <!-- Main icon container - rounded square -->
  <rect x="50" y="45" width="100" height="100" rx="20" fill="url(#logoGradient)"/>
  
  <!-- Quiz checklist design -->
  <g transform="translate(70, 70)">
    <!-- First item -->
    <rect x="0" y="0" width="60" height="8" rx="4" fill="white" opacity="0.9"/>
    <path d="M -10,4 L -7,7 L -3,1" fill="none" stroke="white" stroke-width="2" stroke-linecap="round" stroke-linejoin="round"/>
    
    <!-- Second item -->
    <rect x="0" y="17" width="50" height="8" rx="4" fill="white" opacity="0.9"/>
    <path d="M -10,21 L -7,24 L -3,18" fill="none" stroke="white" stroke-width="2" stroke-linecap="round" stroke-linejoin="round"/>
    
    <!-- Third item -->
    <rect x="0" y="34" width="55" height="8" rx="4" fill="white" opacity="0.9"/>
    <path d="M -10,38 L -7,41 L -3,35" fill="none" stroke="white" stroke-width="2" stroke-linecap="round" stroke-linejoin="round"/>
  </g>

  <!-- AI spark icon in corner -->
  <g transform="translate(135, 60)">
    <circle cx="0" cy="0" r="12" fill="url(#accentGradient)"/>
    <path d="M 0,-6 L 0,6 M -6,0 L 6,0 M -4,-4 L 4,4 M -4,4 L 4,-4" stroke="white" stroke-width="2" stroke-linecap="round"/>
  </g>

  <!-- Brand name -->
  <text x="100" y="175" font-family="Arial, sans-serif" font-size="32" font-weight="bold" fill="url(#logoGradient)" text-anchor="middle">Quizzy</text>
</svg>
